{
  "source": "C:\\Users\\Peter\\Desktop\\stuff\\MIUN\\quantitative_research\\video_compression\\videos\\UVG\\Jockey_1920x1080_120fps_420_8bit_YUV.y4m",
  "output": "C:\\Users\\Peter\\Desktop\\stuff\\MIUN\\quantitative_research\\video_compression\\compressed_videos\\UVG\\av1\\1\\Jockey_1920x1080_120fps_420_8bit_YUV_av1.mkv",
  "codec": "av1",
  "ok": "[yuv4mpegpipe @ 000001c108cc5300] Stream #0: not enough frames to estimate rate; consider increasing probesize\nInput #0, yuv4mpegpipe, from 'C:\\Users\\Peter\\Desktop\\stuff\\MIUN\\quantitative_research\\video_compression\\videos\\UVG\\Jockey_1920x1080_120fps_420_8bit_YUV.y4m':\n  Duration: 00:00:05.00, start: 0.000000, bitrate: 2985989 kb/s\n  Stream #0:0: Video: rawvideo (I420 / 0x30323449), yuv420p(progressive), 1920x1080, 120 fps, 120 tbr, 120 tbn\n[out#0/matroska @ 000001c108cc9100] Codec AVOption b:a (set bitrate (in bits/s)) has not been used for any stream. The most likely reason is either wrong type (e.g. a video option with no video streams) or that it is a private option of some decoder which was not actually used for any stream.\nStream mapping:\n  Stream #0:0 -> #0:0 (rawvideo (native) -> av1 (libsvtav1))\nPress [q] to stop, [?] for help\nSvt[info]: -------------------------------------------\nSvt[info]: SVT [version]:\tSVT-AV1 Encoder Lib v3.1.0-19-g6ecfe8ec\nSvt[info]: SVT [build]  :\tGCC 15.2.0\t 64 bit\nSvt[info]: LIB Build date: Aug 17 2025 11:37:13\nSvt[info]: -------------------------------------------\n[libsvtav1 @ 000001c108ccc140] Specified chroma sample location center is unsupported on the AV1 bit stream level. Usage of a container that allows passing this information - such as Matroska - is recommended.\nSvt[info]: Level of Parallelism: 5\nSvt[info]: Number of PPCS 93\nSvt[info]: [asm level on system : up to avx2]\nSvt[info]: [asm level selected : up to avx2]\nSvt[info]: -------------------------------------------\nSvt[info]: SVT [config]: main profile\ttier (auto)\tlevel (auto)\nSvt[info]: SVT [config]: width / height / fps numerator / fps denominator \t\t: 1920 / 1080 / 120 / 1\nSvt[info]: SVT [config]: bit-depth / color format \t\t\t\t\t: 8 / YUV420\nSvt[info]: SVT [config]: preset / tune / pred struct \t\t\t\t\t: 4 / PSNR / random access\nSvt[info]: SVT [config]: gop size / mini-gop size / key-frame type \t\t\t: 641 / 16 / key frame\nSvt[info]: SVT [config]: BRC mode / target bitrate (kbps)\t\t\t\t: VBR / 1000 \nSvt[info]: SVT [config]: AQ mode / Variance Boost \t\t\t\t\t: 2 / 0\nSvt[info]: SVT [config]: sharpness / luminance-based QP bias \t\t\t\t: 0 / 0\nSvt[info]: SVT [config]: QP scale compress strength \t\t\t\t\t: 0\nSvt[info]: -------------------------------------------\nOutput #0, matroska, to 'C:\\Users\\Peter\\Desktop\\stuff\\MIUN\\quantitative_research\\video_compression\\compressed_videos\\UVG\\av1\\1\\Jockey_1920x1080_120fps_420_8bit_YUV_av1.mkv':\n  Metadata:\n    encoder         : Lavf62.3.100\n  Stream #0:0: Video: av1 (AV01 / 0x31305641), yuv420p(tv, progressive), 1920x1080, q=2-31, 1000 kb/s, 120 fps, 1k tbn\n    Metadata:\n      encoder         : Lavc62.11.100 libsvtav1\n    Side data:\n      cpb: bitrate max/min/avg: 0/0/1000000 buffer size: 1000000 vbv_delay: N/A\nframe=    0 fps=0.0 q=0.0 size=       0KiB time=N/A bitrate=N/A speed=N/A elapsed=0:00:01.74    \nframe=    0 fps=0.0 q=0.0 size=       0KiB time=N/A bitrate=N/A speed=N/A elapsed=0:00:02.31    \nframe=    0 fps=0.0 q=0.0 size=       0KiB time=N/A bitrate=N/A speed=N/A elapsed=0:00:02.92    \nframe=    0 fps=0.0 q=0.0 size=       0KiB time=N/A bitrate=N/A speed=N/A elapsed=0:00:03.48    \nframe=    0 fps=0.0 q=0.0 size=       0KiB time=N/A bitrate=N/A speed=N/A elapsed=0:00:04.05    \nframe=    0 fps=0.0 q=0.0 size=       0KiB time=N/A bitrate=N/A speed=N/A elapsed=0:00:04.60    \nframe=    0 fps=0.0 q=0.0 size=       0KiB time=N/A bitrate=N/A speed=N/A elapsed=0:00:05.18    \nframe=    0 fps=0.0 q=0.0 size=       0KiB time=N/A bitrate=N/A speed=N/A elapsed=0:00:05.75    \nframe=    0 fps=0.0 q=0.0 size=       0KiB time=N/A bitrate=N/A speed=N/A elapsed=0:00:06.37    \nframe=    0 fps=0.0 q=0.0 size=       0KiB time=N/A bitrate=N/A speed=N/A elapsed=0:00:06.97    \nframe=    0 fps=0.0 q=0.0 size=       0KiB time=N/A bitrate=N/A speed=N/A elapsed=0:00:07.57    \nframe=    0 fps=0.0 q=0.0 size=       0KiB time=N/A bitrate=N/A speed=N/A elapsed=0:00:08.15    \nframe=    0 fps=0.0 q=0.0 size=       0KiB time=N/A bitrate=N/A speed=N/A elapsed=0:00:08.71    \nframe=    0 fps=0.0 q=0.0 size=       0KiB time=N/A bitrate=N/A speed=N/A elapsed=0:00:09.27    \nframe=    0 fps=0.0 q=0.0 size=       0KiB time=N/A bitrate=N/A speed=N/A elapsed=0:00:09.83    \nframe=    0 fps=0.0 q=0.0 size=       0KiB time=N/A bitrate=N/A speed=N/A elapsed=0:00:10.42    \nframe=    0 fps=0.0 q=0.0 size=       0KiB time=N/A bitrate=N/A speed=N/A elapsed=0:00:11.01    \nframe=    0 fps=0.0 q=0.0 size=       0KiB time=N/A bitrate=N/A speed=N/A elapsed=0:00:11.58    \nframe=    0 fps=0.0 q=0.0 size=       0KiB time=N/A bitrate=N/A speed=N/A elapsed=0:00:12.17    \nframe=    0 fps=0.0 q=0.0 size=       0KiB time=N/A bitrate=N/A speed=N/A elapsed=0:00:12.75    \nframe=    0 fps=0.0 q=0.0 size=       0KiB time=N/A bitrate=N/A speed=N/A elapsed=0:00:13.32    \nframe=    0 fps=0.0 q=0.0 size=       0KiB time=N/A bitrate=N/A speed=N/A elapsed=0:00:13.89    \nframe=    0 fps=0.0 q=0.0 size=       0KiB time=N/A bitrate=N/A speed=N/A elapsed=0:00:14.45    \nframe=    0 fps=0.0 q=0.0 size=       0KiB time=N/A bitrate=N/A speed=N/A elapsed=0:00:14.99    \nframe=    1 fps=0.1 q=40.0 size=       1KiB time=00:00:00.00 bitrate=N/A speed=   0x elapsed=0:00:15.60    \nframe=    1 fps=0.1 q=40.0 size=       1KiB time=00:00:00.00 bitrate=N/A speed=   0x elapsed=0:00:16.19    \nframe=    1 fps=0.1 q=40.0 size=       1KiB time=00:00:00.00 bitrate=N/A speed=   0x elapsed=0:00:16.75    \nframe=    1 fps=0.1 q=40.0 size=       1KiB time=00:00:00.00 bitrate=N/A speed=   0x elapsed=0:00:17.32    \nframe=    1 fps=0.1 q=40.0 size=       1KiB time=00:00:00.00 bitrate=N/A speed=   0x elapsed=0:00:17.89    \nframe=    1 fps=0.1 q=40.0 size=       1KiB time=00:00:00.00 bitrate=N/A speed=   0x elapsed=0:00:18.45    \nframe=    1 fps=0.1 q=40.0 size=       1KiB time=00:00:00.00 bitrate=N/A speed=   0x elapsed=0:00:19.03    \nframe=    1 fps=0.1 q=40.0 size=       1KiB time=00:00:00.00 bitrate=N/A speed=   0x elapsed=0:00:19.60    \nframe=    1 fps=0.0 q=40.0 size=       1KiB time=00:00:00.00 bitrate=N/A speed=   0x elapsed=0:00:20.16    \nframe=    3 fps=0.1 q=60.0 size=       1KiB time=00:00:00.01 bitrate= 268.8kbits/s speed=0.000803x elapsed=0:00:20.75    \nframe=    5 fps=0.2 q=58.0 size=       1KiB time=00:00:00.03 bitrate= 134.4kbits/s speed=0.00156x elapsed=0:00:21.34    \nframe=    7 fps=0.3 q=59.0 size=       1KiB time=00:00:00.05 bitrate=  89.6kbits/s speed=0.00228x elapsed=0:00:21.91    \nframe=    8 fps=0.4 q=59.0 size=       1KiB time=00:00:00.05 bitrate=  76.8kbits/s speed=0.00259x elapsed=0:00:22.48    \nframe=   11 fps=0.5 q=59.0 size=       1KiB time=00:00:00.08 bitrate=  53.8kbits/s speed=0.00361x elapsed=0:00:23.07    \nframe=   13 fps=0.5 q=58.0 size=       1KiB time=00:00:00.09 bitrate=  48.9kbits/s speed=0.00388x elapsed=0:00:23.65    \nframe=   14 fps=0.6 q=57.0 size=       1KiB time=00:00:00.10 bitrate=  41.4kbits/s speed=0.00447x elapsed=0:00:24.24    \nframe=   17 fps=0.7 q=45.0 size=       1KiB time=00:00:00.13 bitrate=  33.6kbits/s speed=0.00537x elapsed=0:00:24.82    \nframe=   19 fps=0.7 q=59.0 size=       1KiB time=00:00:00.15 bitrate=  29.9kbits/s speed=0.00591x elapsed=0:00:25.37    \nframe=   21 fps=0.8 q=58.0 size=       1KiB time=00:00:00.16 bitrate=  26.9kbits/s speed=0.00642x elapsed=0:00:25.94    \nframe=   22 fps=0.8 q=55.0 size=       1KiB time=00:00:00.17 bitrate=  25.6kbits/s speed=0.0066x elapsed=0:00:26.51    \nframe=   23 fps=0.8 q=59.0 size=       1KiB time=00:00:00.18 bitrate=  24.4kbits/s speed=0.00677x elapsed=0:00:27.07    \nframe=   23 fps=0.8 q=59.0 size=       1KiB time=00:00:00.18 bitrate=  24.4kbits/s speed=0.00663x elapsed=0:00:27.65    \nframe=   25 fps=0.9 q=56.0 size=       1KiB time=00:00:00.20 bitrate=  22.4kbits/s speed=0.00709x elapsed=0:00:28.21    \nframe=   26 fps=0.9 q=55.0 size=       1KiB time=00:00:00.20 bitrate=  21.5kbits/s speed=0.00724x elapsed=0:00:28.79    \nframe=   28 fps=1.0 q=55.0 size=       1KiB time=00:00:00.22 bitrate=  19.9kbits/s speed=0.00766x elapsed=0:00:29.36    \nframe=   29 fps=1.0 q=58.0 size=       1KiB time=00:00:00.23 bitrate=  19.2kbits/s speed=0.00779x elapsed=0:00:29.96    \nframe=   30 fps=1.0 q=56.0 size=       1KiB time=00:00:00.24 bitrate=  18.5kbits/s speed=0.00791x elapsed=0:00:30.56    \nframe=   33 fps=1.1 q=44.0 size=       1KiB time=00:00:00.26 bitrate=  16.8kbits/s speed=0.00856x elapsed=0:00:31.13    \nframe=   35 fps=1.1 q=58.0 size=       1KiB time=00:00:00.28 bitrate=  15.8kbits/s speed=0.00893x elapsed=0:00:31.71    \nframe=   36 fps=1.1 q=53.0 size=       1KiB time=00:00:00.29 bitrate=  15.4kbits/s speed=0.00903x elapsed=0:00:32.29    \nframe=   37 fps=1.1 q=58.0 size=       1KiB time=00:00:00.30 bitrate=  14.9kbits/s speed=0.00913x elapsed=0:00:32.86    \nframe=   38 fps=1.1 q=55.0 size=       1KiB time=00:00:00.30 bitrate=  14.5kbits/s speed=0.00922x elapsed=0:00:33.44    \nframe=   40 fps=1.2 q=55.0 size=       1KiB time=00:00:00.32 bitrate=  13.8kbits/s speed=0.00955x elapsed=0:00:34.02    \nframe=   41 fps=1.2 q=52.0 size=       1KiB time=00:00:00.33 bitrate=  13.4kbits/s speed=0.00963x elapsed=0:00:34.62    \nframe=   42 fps=1.2 q=55.0 size=       1KiB time=00:00:00.34 bitrate=  13.1kbits/s speed=0.00971x elapsed=0:00:35.20    \nframe=   44 fps=1.2 q=55.0 size=       1KiB time=00:00:00.35 bitrate=  12.5kbits/s speed=0.01x elapsed=0:00:35.78    \nframe=   45 fps=1.2 q=58.0 size=       1KiB time=00:00:00.36 bitrate=  12.2kbits/s speed=0.0101x elapsed=0:00:36.35    \nframe=   48 fps=1.3 q=56.0 size=       1KiB time=00:00:00.39 bitrate=  11.4kbits/s speed=0.0106x elapsed=0:00:36.92    \nframe=   49 fps=1.3 q=41.0 size=       1KiB time=00:00:00.40 bitrate=  11.2kbits/s speed=0.0107x elapsed=0:00:37.48    \nframe=   51 fps=1.3 q=58.0 size=       1KiB time=00:00:00.41 bitrate=  10.8kbits/s speed=0.0109x elapsed=0:00:38.05    \nframe=   52 fps=1.3 q=55.0 size=       1KiB time=00:00:00.42 bitrate=  10.5kbits/s speed=0.011x elapsed=0:00:38.62    \nframe=   53 fps=1.4 q=58.0 size=       1KiB time=00:00:00.43 bitrate=  10.3kbits/s speed=0.0111x elapsed=0:00:39.18    \nframe=   54 fps=1.4 q=55.0 size=       1KiB time=00:00:00.44 bitrate=  10.1kbits/s speed=0.0111x elapsed=0:00:39.74    \nframe=   56 fps=1.4 q=56.0 size=       1KiB time=00:00:00.45 bitrate=   9.8kbits/s speed=0.0114x elapsed=0:00:40.32    \nframe=   57 fps=1.4 q=49.0 size=       1KiB time=00:00:00.46 bitrate=   9.6kbits/s speed=0.0114x elapsed=0:00:40.91    \nframe=   58 fps=1.4 q=56.0 size=       1KiB time=00:00:00.47 bitrate=   9.4kbits/s speed=0.0114x elapsed=0:00:41.48    \nframe=   60 fps=1.4 q=56.0 size=       1KiB time=00:00:00.49 bitrate=   9.1kbits/s speed=0.0117x elapsed=0:00:42.06    \nframe=   61 fps=1.4 q=58.0 size=       1KiB time=00:00:00.50 bitrate=   9.0kbits/s speed=0.0117x elapsed=0:00:42.63    \nframe=   62 fps=1.4 q=55.0 size=       1KiB time=00:00:00.50 bitrate=   8.8kbits/s speed=0.0118x elapsed=0:00:43.21    \nframe=   65 fps=1.5 q=39.0 size=       1KiB time=00:00:00.53 bitrate=   8.4kbits/s speed=0.0122x elapsed=0:00:43.78    \nframe=   66 fps=1.5 q=56.0 size=       1KiB time=00:00:00.54 bitrate=   8.3kbits/s speed=0.0122x elapsed=0:00:44.35    \nframe=   67 fps=1.5 q=59.0 size=       1KiB time=00:00:00.55 bitrate=   8.1kbits/s speed=0.0122x elapsed=0:00:44.93    \nframe=   68 fps=1.5 q=55.0 size=       1KiB time=00:00:00.55 bitrate=   8.0kbits/s speed=0.0123x elapsed=0:00:45.50    \nframe=   69 fps=1.5 q=58.0 size=       1KiB time=00:00:00.56 bitrate=   7.9kbits/s speed=0.0123x elapsed=0:00:46.08    \nframe=   71 fps=1.5 q=58.0 size=       1KiB time=00:00:00.58 bitrate=   7.7kbits/s speed=0.0125x elapsed=0:00:46.64    \nframe=   71 fps=1.5 q=58.0 size=       1KiB time=00:00:00.58 bitrate=   7.7kbits/s speed=0.0124x elapsed=0:00:47.22    \nframe=   72 fps=1.5 q=55.0 size=       1KiB time=00:00:00.59 bitrate=   7.6kbits/s speed=0.0124x elapsed=0:00:47.80    \nframe=   74 fps=1.5 q=55.0 size=       1KiB time=00:00:00.60 bitrate=   7.5kbits/s speed=0.0124x elapsed=0:00:48.37    \nframe=   76 fps=1.6 q=55.0 size=       1KiB time=00:00:00.61 bitrate=   7.3kbits/s speed=0.0126x elapsed=0:00:48.95    \nframe=   76 fps=1.5 q=55.0 size=       1KiB time=00:00:00.62 bitrate=   7.2kbits/s speed=0.0126x elapsed=0:00:49.54    \nframe=   77 fps=1.5 q=56.0 size=       1KiB time=00:00:00.63 bitrate=   7.1kbits/s speed=0.0126x elapsed=0:00:50.12    \nframe=   79 fps=1.6 q=58.0 size=       1KiB time=00:00:00.65 bitrate=   6.9kbits/s speed=0.0128x elapsed=0:00:50.72    \nframe=   80 fps=1.6 q=54.0 size=       1KiB time=00:00:00.65 bitrate=   6.8kbits/s speed=0.0128x elapsed=0:00:51.32    \nframe=   82 fps=1.6 q=53.0 size=       1KiB time=00:00:00.67 bitrate=   6.6kbits/s speed=0.013x elapsed=0:00:51.91    \nframe=   83 fps=1.6 q=57.0 size=       1KiB time=00:00:00.68 bitrate=   6.6kbits/s speed=0.013x elapsed=0:00:52.48    \nframe=   84 fps=1.6 q=53.0 size=       1KiB time=00:00:00.69 bitrate=   6.5kbits/s speed=0.013x elapsed=0:00:53.05    \nframe=   86 fps=1.6 q=54.0 size=       1KiB time=00:00:00.70 bitrate=   6.3kbits/s speed=0.0132x elapsed=0:00:53.61    \nframe=   87 fps=1.6 q=58.0 size=       1KiB time=00:00:00.71 bitrate=   6.3kbits/s speed=0.0132x elapsed=0:00:54.18    \nframe=   88 fps=1.6 q=56.0 size=       1KiB time=00:00:00.72 bitrate=   6.2kbits/s speed=0.0132x elapsed=0:00:54.76    \nframe=   89 fps=1.6 q=47.0 size=       1KiB time=00:00:00.73 bitrate=   6.1kbits/s speed=0.0133x elapsed=0:00:55.34    \nframe=   90 fps=1.6 q=56.0 size=       1KiB time=00:00:00.74 bitrate=   6.0kbits/s speed=0.0133x elapsed=0:00:55.91    \nframe=   92 fps=1.6 q=56.0 size=       1KiB time=00:00:00.75 bitrate=   5.9kbits/s speed=0.0134x elapsed=0:00:56.49    \nframe=   94 fps=1.6 q=56.0 size=       1KiB time=00:00:00.76 bitrate=   5.8kbits/s speed=0.0134x elapsed=0:00:57.08    \nframe=   96 fps=1.7 q=56.0 size=       1KiB time=00:00:00.79 bitrate=   5.7kbits/s speed=0.0137x elapsed=0:00:57.66    \nframe=   97 fps=1.7 q=37.0 size=       1KiB time=00:00:00.80 bitrate=   5.6kbits/s speed=0.0137x elapsed=0:00:58.24    \nframe=   98 fps=1.7 q=55.0 size=       1KiB time=00:00:00.80 bitrate=   5.5kbits/s speed=0.0137x elapsed=0:00:58.81    \nframe=   99 fps=1.7 q=59.0 size=       1KiB time=00:00:00.81 bitrate=   5.5kbits/s speed=0.0138x elapsed=0:00:59.37    \nframe=  100 fps=1.7 q=55.0 size=       1KiB time=00:00:00.82 bitrate=   5.4kbits/s speed=0.0138x elapsed=0:00:59.93    \nframe=  103 fps=1.7 q=59.0 size=       1KiB time=00:00:00.84 bitrate=   5.3kbits/s speed=0.0139x elapsed=0:01:00.50    \nframe=  103 fps=1.7 q=59.0 size=       1KiB time=00:00:00.85 bitrate=   5.3kbits/s speed=0.0139x elapsed=0:01:01.05    \nframe=  104 fps=1.7 q=56.0 size=       1KiB time=00:00:00.85 bitrate=   5.2kbits/s speed=0.0139x elapsed=0:01:01.63    \nframe=  105 fps=1.7 q=47.0 size=       1KiB time=00:00:00.86 bitrate=   5.2kbits/s speed=0.0139x elapsed=0:01:02.22    \nframe=  106 fps=1.7 q=56.0 size=       1KiB time=00:00:00.87 bitrate=   5.1kbits/s speed=0.0139x elapsed=0:01:02.82    \nframe=  108 fps=1.7 q=56.0 size=       1KiB time=00:00:00.89 bitrate=   5.0kbits/s speed=0.0141x elapsed=0:01:03.40    \nframe=  109 fps=1.7 q=57.0 size=       1KiB time=00:00:00.90 bitrate=   5.0kbits/s speed=0.0141x elapsed=0:01:03.97    \nframe=  112 fps=1.7 q=57.0 size=       1KiB time=00:00:00.91 bitrate=   4.9kbits/s speed=0.0142x elapsed=0:01:04.56    \nframe=  113 fps=1.7 q=37.0 size=       1KiB time=00:00:00.93 bitrate=   4.8kbits/s speed=0.0143x elapsed=0:01:05.15    \nframe=  115 fps=1.7 q=60.0 size=       1KiB time=00:00:00.95 bitrate=   4.7kbits/s speed=0.0145x elapsed=0:01:05.72    \nframe=  116 fps=1.7 q=56.0 size=       1KiB time=00:00:00.95 bitrate=   4.7kbits/s speed=0.0145x elapsed=0:01:06.29    \nframe=  117 fps=1.7 q=58.0 size=       1KiB time=00:00:00.96 bitrate=   4.6kbits/s speed=0.0145x elapsed=0:01:06.85    \nframe=  119 fps=1.8 q=60.0 size=       1KiB time=00:00:00.98 bitrate=   4.6kbits/s speed=0.0146x elapsed=0:01:07.45    \nframe=  119 fps=1.7 q=60.0 size=       1KiB time=00:00:00.98 bitrate=   4.6kbits/s speed=0.0145x elapsed=0:01:08.04    \nframe=  120 fps=1.7 q=57.0 size=       1KiB time=00:00:00.99 bitrate=   4.5kbits/s speed=0.0144x elapsed=0:01:08.62    \nframe=  121 fps=1.7 q=47.0 size=       1KiB time=00:00:01.00 bitrate=   4.5kbits/s speed=0.0144x elapsed=0:01:09.20    \nframe=  123 fps=1.8 q=60.0 size=       1KiB time=00:00:01.01 bitrate=   4.4kbits/s speed=0.0146x elapsed=0:01:09.78    \nframe=  125 fps=1.8 q=58.0 size=       1KiB time=00:00:01.03 bitrate=   4.3kbits/s speed=0.0147x elapsed=0:01:10.36    \nframe=  128 fps=1.8 q=57.0 size=       1KiB time=00:00:01.05 bitrate=   4.3kbits/s speed=0.0148x elapsed=0:01:10.92    \nframe=  130 fps=1.8 q=57.0 size=       1KiB time=00:00:01.07 bitrate=   4.2kbits/s speed=0.015x elapsed=0:01:11.50    \nframe=  132 fps=1.8 q=57.0 size=       1KiB time=00:00:01.09 bitrate=   4.1kbits/s speed=0.0151x elapsed=0:01:12.07    \nframe=  134 fps=1.8 q=57.0 size=       1KiB time=00:00:01.10 bitrate=   4.0kbits/s speed=0.0153x elapsed=0:01:12.65    \nframe=  134 fps=1.8 q=57.0 size=       1KiB time=00:00:01.10 bitrate=   4.0kbits/s speed=0.0151x elapsed=0:01:13.23    \nframe=  136 fps=1.8 q=57.0 size=       1KiB time=00:00:01.12 bitrate=   4.0kbits/s speed=0.0152x elapsed=0:01:13.80    \nframe=  137 fps=1.8 q=48.0 size=       1KiB time=00:00:01.13 bitrate=   4.0kbits/s speed=0.0152x elapsed=0:01:14.38    \nframe=  139 fps=1.9 q=58.0 size=       1KiB time=00:00:01.14 bitrate=   3.9kbits/s speed=0.0152x elapsed=0:01:14.95    \nframe=  140 fps=1.9 q=57.0 size=       1KiB time=00:00:01.15 bitrate=   3.9kbits/s speed=0.0153x elapsed=0:01:15.53    \nframe=  142 fps=1.9 q=57.0 size=       1KiB time=00:00:01.17 bitrate=   3.8kbits/s speed=0.0154x elapsed=0:01:16.11    \nframe=  144 fps=1.9 q=57.0 size=       1KiB time=00:00:01.19 bitrate=   3.8kbits/s speed=0.0155x elapsed=0:01:16.69    \nframe=  145 fps=1.9 q=42.0 size=       1KiB time=00:00:01.20 bitrate=   3.7kbits/s speed=0.0155x elapsed=0:01:17.25    \nframe=  146 fps=1.9 q=58.0 size=       1KiB time=00:00:01.20 bitrate=   3.7kbits/s speed=0.0155x elapsed=0:01:17.82    \nframe=  148 fps=1.9 q=58.0 size=       1KiB time=00:00:01.22 bitrate=   3.7kbits/s speed=0.0156x elapsed=0:01:18.38    \nframe=  151 fps=1.9 q=60.0 size=       1KiB time=00:00:01.24 bitrate=   3.6kbits/s speed=0.0157x elapsed=0:01:18.93    \nframe=  152 fps=1.9 q=59.0 size=       1KiB time=00:00:01.25 bitrate=   3.6kbits/s speed=0.0158x elapsed=0:01:19.47    \nframe=  152 fps=1.9 q=59.0 size=       1KiB time=00:00:01.25 bitrate=   3.6kbits/s speed=0.0157x elapsed=0:01:20.03    \nframe=  154 fps=1.9 q=59.0 size=       1KiB time=00:00:01.27 bitrate=   3.5kbits/s speed=0.0158x elapsed=0:01:20.60    \nframe=  156 fps=1.9 q=59.0 size=       1KiB time=00:00:01.29 bitrate=   3.5kbits/s speed=0.0159x elapsed=0:01:21.17    \nframe=  157 fps=1.9 q=58.0 size=       1KiB time=00:00:01.30 bitrate=   3.4kbits/s speed=0.0159x elapsed=0:01:21.74    \nframe=  159 fps=1.9 q=60.0 size=       1KiB time=00:00:01.30 bitrate=   3.4kbits/s speed=0.0159x elapsed=0:01:22.31    \nframe=  161 fps=1.9 q=45.0 size=       1KiB time=00:00:01.32 bitrate=   3.4kbits/s speed=0.016x elapsed=0:01:22.88    \nframe=  162 fps=1.9 q=60.0 size=       1KiB time=00:00:01.34 bitrate=   3.3kbits/s speed=0.0161x elapsed=0:01:23.44    \nframe=  164 fps=2.0 q=60.0 size=       1KiB time=00:00:01.35 bitrate=   3.3kbits/s speed=0.0162x elapsed=0:01:24.01    \nframe=  165 fps=2.0 q=58.0 size=       1KiB time=00:00:01.36 bitrate=   3.3kbits/s speed=0.0162x elapsed=0:01:24.58    \nframe=  167 fps=2.0 q=60.0 size=       1KiB time=00:00:01.38 bitrate=   3.2kbits/s speed=0.0162x elapsed=0:01:25.14    \nframe=  167 fps=1.9 q=60.0 size=       1KiB time=00:00:01.38 bitrate=   3.2kbits/s speed=0.0161x elapsed=0:01:25.71    \nframe=  168 fps=1.9 q=60.0 size=       1KiB time=00:00:01.39 bitrate=   3.2kbits/s speed=0.0161x elapsed=0:01:26.30    \nframe=  169 fps=1.9 q=51.0 size=       1KiB time=00:00:01.40 bitrate=   3.2kbits/s speed=0.0161x elapsed=0:01:26.90    \nframe=  170 fps=1.9 q=60.0 size=       1KiB time=00:00:01.40 bitrate=   3.2kbits/s speed=0.0161x elapsed=0:01:27.49    \nframe=  171 fps=1.9 q=60.0 size=       1KiB time=00:00:01.41 bitrate=   3.2kbits/s speed=0.0161x elapsed=0:01:28.06    \nframe=  173 fps=2.0 q=58.0 size=       1KiB time=00:00:01.43 bitrate=   3.1kbits/s speed=0.0162x elapsed=0:01:28.64    \nframe=  175 fps=2.0 q=59.0 size=       1KiB time=00:00:01.45 bitrate=   3.1kbits/s speed=0.0162x elapsed=0:01:29.23    \nframe=  176 fps=2.0 q=59.0 size=       1KiB time=00:00:01.45 bitrate=   3.1kbits/s speed=0.0162x elapsed=0:01:29.81    \nframe=  178 fps=2.0 q=61.0 size=       1KiB time=00:00:01.47 bitrate=   3.0kbits/s speed=0.0163x elapsed=0:01:30.40    \nframe=  179 fps=2.0 q=60.0 size=       1KiB time=00:00:01.47 bitrate=   3.0kbits/s speed=0.0162x elapsed=0:01:30.98    \nframe=  181 fps=2.0 q=58.0 size=       1KiB time=00:00:01.50 bitrate=   3.0kbits/s speed=0.0164x elapsed=0:01:31.55    \nframe=  182 fps=2.0 q=61.0 size=       1KiB time=00:00:01.50 bitrate=   3.0kbits/s speed=0.0164x elapsed=0:01:32.11    \nframe=  183 fps=2.0 q=60.0 size=       1KiB time=00:00:01.51 bitrate=   3.0kbits/s speed=0.0164x elapsed=0:01:32.69    \nframe=  184 fps=2.0 q=54.0 size=       1KiB time=00:00:01.52 bitrate=   2.9kbits/s speed=0.0163x elapsed=0:01:33.29    \nframe=  185 fps=2.0 q=53.0 size=       1KiB time=00:00:01.53 bitrate=   2.9kbits/s speed=0.0163x elapsed=0:01:33.87    \nframe=  187 fps=2.0 q=60.0 size=       1KiB time=00:00:01.55 bitrate=   2.9kbits/s speed=0.0164x elapsed=0:01:34.46    \nframe=  188 fps=2.0 q=61.0 size=       1KiB time=00:00:01.55 bitrate=   2.9kbits/s speed=0.0164x elapsed=0:01:35.04    \nframe=  191 fps=2.0 q=60.0 size=       1KiB time=00:00:01.57 bitrate=   2.8kbits/s speed=0.0165x elapsed=0:01:35.61    \nframe=  192 fps=2.0 q=61.0 size=       1KiB time=00:00:01.58 bitrate=   2.8kbits/s speed=0.0165x elapsed=0:01:36.18    \nframe=  193 fps=2.0 q=47.0 size=       1KiB time=00:00:01.60 bitrate=   2.8kbits/s speed=0.0165x elapsed=0:01:36.76    \nframe=  195 fps=2.0 q=60.0 size=       1KiB time=00:00:01.61 bitrate=   2.8kbits/s speed=0.0166x elapsed=0:01:37.31    \nframe=  198 fps=2.0 q=61.0 size=       1KiB time=00:00:01.63 bitrate=   2.7kbits/s speed=0.0167x elapsed=0:01:37.85    \nframe=  199 fps=2.0 q=60.0 size=       1KiB time=00:00:01.65 bitrate=   2.7kbits/s speed=0.0168x elapsed=0:01:38.40    \nframe=  200 fps=2.0 q=56.0 size=       1KiB time=00:00:01.65 bitrate=   2.7kbits/s speed=0.0168x elapsed=0:01:38.97    \nframe=  202 fps=2.0 q=61.0 size=       1KiB time=00:00:01.67 bitrate=   2.7kbits/s speed=0.0168x elapsed=0:01:39.54    \nframe=  203 fps=2.0 q=60.0 size=       1KiB time=00:00:01.68 bitrate=   2.7kbits/s speed=0.0168x elapsed=0:01:40.11    \nframe=  204 fps=2.0 q=61.0 size=       1KiB time=00:00:01.69 bitrate=   2.6kbits/s speed=0.0168x elapsed=0:01:40.69    \nframe=  207 fps=2.0 q=60.0 size=       1KiB time=00:00:01.71 bitrate=   2.6kbits/s speed=0.017x elapsed=0:01:41.27    \nframe=  208 fps=2.0 q=61.0 size=       1KiB time=00:00:01.72 bitrate=   2.6kbits/s speed=0.0169x elapsed=0:01:41.85    \nframe=  210 fps=2.1 q=61.0 size=       1KiB time=00:00:01.74 bitrate=   2.6kbits/s speed=0.017x elapsed=0:01:42.42    \nframe=  213 fps=2.1 q=59.0 size=       1KiB time=00:00:01.75 bitrate=   2.5kbits/s speed=0.0171x elapsed=0:01:42.99    \nframe=  214 fps=2.1 q=61.0 size=       1KiB time=00:00:01.77 bitrate=   2.5kbits/s speed=0.0171x elapsed=0:01:43.55    \nframe=  215 fps=2.1 q=60.0 size=       1KiB time=00:00:01.78 bitrate=   2.5kbits/s speed=0.0171x elapsed=0:01:44.11    \nframe=  216 fps=2.1 q=61.0 size=       1KiB time=00:00:01.79 bitrate=   2.5kbits/s speed=0.0171x elapsed=0:01:44.68    \nframe=  218 fps=2.1 q=61.0 size=       1KiB time=00:00:01.80 bitrate=   2.5kbits/s speed=0.0172x elapsed=0:01:45.26    \nframe=  221 fps=2.1 q=58.0 size=       1KiB time=00:00:01.82 bitrate=   2.5kbits/s speed=0.0172x elapsed=0:01:45.84    \nframe=  223 fps=2.1 q=60.0 size=       1KiB time=00:00:01.85 bitrate=   2.4kbits/s speed=0.0174x elapsed=0:01:46.43    \nframe=  224 fps=2.1 q=61.0 size=       1KiB time=00:00:01.85 bitrate=   2.4kbits/s speed=0.0174x elapsed=0:01:46.99    \nframe=  226 fps=2.1 q=61.0 size=       1KiB time=00:00:01.87 bitrate=   2.4kbits/s speed=0.0174x elapsed=0:01:47.54    \nframe=  229 fps=2.1 q=59.0 size=       1KiB time=00:00:01.89 bitrate=   2.4kbits/s speed=0.0175x elapsed=0:01:48.10    \nframe=  230 fps=2.1 q=61.0 size=       1KiB time=00:00:01.90 bitrate=   2.3kbits/s speed=0.0176x elapsed=0:01:48.65    \nframe=  231 fps=2.1 q=60.0 size=       1KiB time=00:00:01.91 bitrate=   2.3kbits/s speed=0.0175x elapsed=0:01:49.22    \nframe=  232 fps=2.1 q=61.0 size=       1KiB time=00:00:01.92 bitrate=   2.3kbits/s speed=0.0175x elapsed=0:01:49.82    \nframe=  234 fps=2.1 q=61.0 size=       1KiB time=00:00:01.94 bitrate=   2.3kbits/s speed=0.0176x elapsed=0:01:50.41    \nframe=  236 fps=2.1 q=61.0 size=       1KiB time=00:00:01.95 bitrate=   2.3kbits/s speed=0.0176x elapsed=0:01:50.99    \nframe=  237 fps=2.1 q=58.0 size=       1KiB time=00:00:01.96 bitrate=   2.3kbits/s speed=0.0176x elapsed=0:01:51.57    \nframe=  239 fps=2.1 q=60.0 size=       1KiB time=00:00:01.98 bitrate=   2.3kbits/s speed=0.0177x elapsed=0:01:52.13    \nframe=  240 fps=2.1 q=61.0 size=       1KiB time=00:00:01.99 bitrate=   2.2kbits/s speed=0.0177x elapsed=0:01:52.71    \nframe=  242 fps=2.1 q=61.0 size=       1KiB time=00:00:02.00 bitrate=   2.2kbits/s speed=0.0177x elapsed=0:01:53.28    \nframe=  244 fps=2.1 q=61.0 size=       1KiB time=00:00:02.02 bitrate=   2.2kbits/s speed=0.0178x elapsed=0:01:53.85    \nframe=  246 fps=2.1 q=61.0 size=       1KiB time=00:00:02.03 bitrate=   2.2kbits/s speed=0.0178x elapsed=0:01:54.44    \nframe=  246 fps=2.1 q=61.0 size=       1KiB time=00:00:02.04 bitrate=   2.2kbits/s speed=0.0178x elapsed=0:01:55.02    \nframe=  247 fps=2.1 q=60.0 size=       1KiB time=00:00:02.05 bitrate=   2.2kbits/s speed=0.0177x elapsed=0:01:55.60    \nframe=  248 fps=2.1 q=61.0 size=       1KiB time=00:00:02.05 bitrate=   2.2kbits/s speed=0.0176x elapsed=0:01:56.23    \nframe=  249 fps=2.1 q=55.0 size=       1KiB time=00:00:02.06 bitrate=   2.2kbits/s speed=0.0177x elapsed=0:01:56.86    \nframe=  251 fps=2.1 q=60.0 size=       1KiB time=00:00:02.08 bitrate=   2.2kbits/s speed=0.0177x elapsed=0:01:57.49    \nframe=  252 fps=2.1 q=61.0 size=       1KiB time=00:00:02.09 bitrate=   2.1kbits/s speed=0.0177x elapsed=0:01:58.09    \nframe=  254 fps=2.1 q=61.0 size=       1KiB time=00:00:02.10 bitrate=   2.1kbits/s speed=0.0178x elapsed=0:01:58.68    \nframe=  256 fps=2.1 q=61.0 size=       1KiB time=00:00:02.12 bitrate=   2.1kbits/s speed=0.0178x elapsed=0:01:59.28    \nframe=  258 fps=2.2 q=62.0 size=       1KiB time=00:00:02.14 bitrate=   2.1kbits/s speed=0.0179x elapsed=0:01:59.86    \nframe=  259 fps=2.2 q=61.0 size=       1KiB time=00:00:02.15 bitrate=   2.1kbits/s speed=0.0178x elapsed=0:02:00.45    \nframe=  262 fps=2.2 q=62.0 size=       1KiB time=00:00:02.17 bitrate=   2.1kbits/s speed=0.018x elapsed=0:02:01.03    \nframe=  263 fps=2.2 q=61.0 size=       1KiB time=00:00:02.18 bitrate=   2.1kbits/s speed=0.018x elapsed=0:02:01.61    \nframe=  264 fps=2.2 q=62.0 size=       1KiB time=00:00:02.19 bitrate=   2.0kbits/s speed=0.0179x elapsed=0:02:02.21    \nframe=  267 fps=2.2 q=60.0 size=       1KiB time=00:00:02.21 bitrate=   2.0kbits/s speed=0.0181x elapsed=0:02:02.77    \nframe=  269 fps=2.2 q=58.0 size=       1KiB time=00:00:02.22 bitrate=   2.0kbits/s speed=0.018x elapsed=0:02:03.39    \nframe=  270 fps=2.2 q=61.0 size=       1KiB time=00:00:02.24 bitrate=   2.0kbits/s speed=0.0181x elapsed=0:02:03.98    \nframe=  271 fps=2.2 q=60.0 size=       1KiB time=00:00:02.25 bitrate=   2.0kbits/s speed=0.0181x elapsed=0:02:04.57    \nframe=  274 fps=2.2 q=62.0 size=       1KiB time=00:00:02.27 bitrate=   2.0kbits/s speed=0.0182x elapsed=0:02:05.14    \nframe=  276 fps=2.2 q=62.0 size=       1KiB time=00:00:02.29 bitrate=   2.0kbits/s speed=0.0182x elapsed=0:02:05.70    \nframe=  278 fps=2.2 q=62.0 size=       1KiB time=00:00:02.30 bitrate=   1.9kbits/s speed=0.0183x elapsed=0:02:06.26    \nframe=  279 fps=2.2 q=61.0 size=       1KiB time=00:00:02.31 bitrate=   1.9kbits/s speed=0.0183x elapsed=0:02:06.84    \nframe=  280 fps=2.2 q=62.0 size=       1KiB time=00:00:02.31 bitrate=   1.9kbits/s speed=0.0182x elapsed=0:02:07.41    \nframe=  281 fps=2.2 q=57.0 size=       1KiB time=00:00:02.33 bitrate=   1.9kbits/s speed=0.0182x elapsed=0:02:07.98    \nframe=  283 fps=2.2 q=60.0 size=       1KiB time=00:00:02.35 bitrate=   1.9kbits/s speed=0.0183x elapsed=0:02:08.54    \nframe=  285 fps=2.2 q=58.0 size=       1KiB time=00:00:02.35 bitrate=   1.9kbits/s speed=0.0183x elapsed=0:02:09.14    \nframe=  287 fps=2.2 q=60.0 size=       1KiB time=00:00:02.38 bitrate=   1.9kbits/s speed=0.0184x elapsed=0:02:09.72    \nframe=  289 fps=2.2 q=51.0 size=       1KiB time=00:00:02.39 bitrate=   1.9kbits/s speed=0.0184x elapsed=0:02:10.30    \nframe=  291 fps=2.2 q=62.0 size=       1KiB time=00:00:02.41 bitrate=   1.9kbits/s speed=0.0185x elapsed=0:02:10.90    \nframe=  293 fps=2.2 q=60.0 size=       1KiB time=00:00:02.43 bitrate=   1.8kbits/s speed=0.0185x elapsed=0:02:11.46    \nframe=  294 fps=2.2 q=63.0 size=       1KiB time=00:00:02.44 bitrate=   1.8kbits/s speed=0.0185x elapsed=0:02:12.00    \nframe=  295 fps=2.2 q=62.0 size=       1KiB time=00:00:02.45 bitrate=   1.8kbits/s speed=0.0185x elapsed=0:02:12.58    \nframe=  297 fps=2.2 q=57.0 size=       1KiB time=00:00:02.46 bitrate=   1.8kbits/s speed=0.0185x elapsed=0:02:13.14    \nframe=  300 fps=2.2 q=63.0 size=       1KiB time=00:00:02.49 bitrate=   1.8kbits/s speed=0.0186x elapsed=0:02:13.72    \nframe=  301 fps=2.2 q=59.0 size=       1KiB time=00:00:02.50 bitrate=   1.8kbits/s speed=0.0186x elapsed=0:02:14.32    \nframe=  304 fps=2.3 q=63.0 size=       1KiB time=00:00:02.52 bitrate=   1.8kbits/s speed=0.0187x elapsed=0:02:14.90    \nframe=  306 fps=2.3 q=63.0 size=       1KiB time=00:00:02.54 bitrate=   1.8kbits/s speed=0.0188x elapsed=0:02:15.48    \nframe=  309 fps=2.3 q=62.0 size=       1KiB time=00:00:02.56 bitrate=   1.7kbits/s speed=0.0189x elapsed=0:02:16.05    \nframe=  310 fps=2.3 q=63.0 size=       1KiB time=00:00:02.57 bitrate=   1.7kbits/s speed=0.0188x elapsed=0:02:16.63    \nframe=  311 fps=2.3 q=63.0 size=       1KiB time=00:00:02.58 bitrate=   1.7kbits/s speed=0.0188x elapsed=0:02:17.23    \nframe=  313 fps=2.3 q=59.0 size=       1KiB time=00:00:02.60 bitrate=   1.7kbits/s speed=0.0189x elapsed=0:02:17.85    \nframe=  315 fps=2.3 q=62.0 size=       1KiB time=00:00:02.61 bitrate=   1.7kbits/s speed=0.0189x elapsed=0:02:18.45    \nframe=  317 fps=2.3 q=59.0 size=       1KiB time=00:00:02.62 bitrate=   1.7kbits/s speed=0.0189x elapsed=0:02:19.05    \nframe=  320 fps=2.3 q=63.0 size=       1KiB time=00:00:02.65 bitrate=   1.7kbits/s speed=0.019x elapsed=0:02:19.68    \nframe=  321 fps=2.3 q=54.0 size=       1KiB time=00:00:02.66 bitrate=   1.7kbits/s speed=0.019x elapsed=0:02:20.27    \nframe=  323 fps=2.3 q=63.0 size=       1KiB time=00:00:02.68 bitrate=   1.7kbits/s speed=0.019x elapsed=0:02:20.86    \nframe=  325 fps=2.3 q=62.0 size=       1KiB time=00:00:02.70 bitrate=   1.7kbits/s speed=0.0191x elapsed=0:02:21.46    \nframe=  326 fps=2.3 q=63.0 size=       1KiB time=00:00:02.70 bitrate=   1.7kbits/s speed=0.0191x elapsed=0:02:22.04    \nframe=  327 fps=2.3 q=63.0 size=       1KiB time=00:00:02.71 bitrate=   1.6kbits/s speed=0.019x elapsed=0:02:22.61    \nframe=  330 fps=2.3 q=63.0 size=       1KiB time=00:00:02.73 bitrate=   1.6kbits/s speed=0.0191x elapsed=0:02:23.18    \nframe=  333 fps=2.3 q=59.0 size=       1KiB time=00:00:02.76 bitrate=   1.6kbits/s speed=0.0192x elapsed=0:02:23.73    \nframe=  337 fps=2.3 q=53.0 size=       1KiB time=00:00:02.79 bitrate=   1.6kbits/s speed=0.0193x elapsed=0:02:24.29    \nframe=  339 fps=2.3 q=63.0 size=       1KiB time=00:00:02.80 bitrate=   1.6kbits/s speed=0.0194x elapsed=0:02:24.89    \nframe=  341 fps=2.3 q=62.0 size=       1KiB time=00:00:02.82 bitrate=   1.6kbits/s speed=0.0194x elapsed=0:02:25.47    \nframe=  342 fps=2.3 q=63.0 size=       1KiB time=00:00:02.84 bitrate=   1.6kbits/s speed=0.0195x elapsed=0:02:26.05    \nframe=  343 fps=2.3 q=63.0 size=       1KiB time=00:00:02.85 bitrate=   1.6kbits/s speed=0.0194x elapsed=0:02:26.64    \nframe=  345 fps=2.3 q=59.0 size=       1KiB time=00:00:02.85 bitrate=   1.6kbits/s speed=0.0194x elapsed=0:02:27.23    \nframe=  347 fps=2.3 q=61.0 size=       1KiB time=00:00:02.88 bitrate=   1.6kbits/s speed=0.0195x elapsed=0:02:27.82    \nframe=  348 fps=2.3 q=63.0 size=       1KiB time=00:00:02.89 bitrate=   1.5kbits/s speed=0.0195x elapsed=0:02:28.43    \nframe=  352 fps=2.4 q=63.0 size=       1KiB time=00:00:02.92 bitrate=   1.5kbits/s speed=0.0196x elapsed=0:02:29.01    \nframe=  354 fps=2.4 q=63.0 size=       1KiB time=00:00:02.94 bitrate=   1.5kbits/s speed=0.0197x elapsed=0:02:29.59    \nframe=  355 fps=2.4 q=63.0 size=       1KiB time=00:00:02.95 bitrate=   1.5kbits/s speed=0.0196x elapsed=0:02:30.16    \nframe=  358 fps=2.4 q=63.0 size=       1KiB time=00:00:02.97 bitrate=   1.5kbits/s speed=0.0197x elapsed=0:02:30.73    \nframe=  358 fps=2.4 q=63.0 size=       1KiB time=00:00:02.97 bitrate=   1.5kbits/s speed=0.0197x elapsed=0:02:31.29    \nframe=  360 fps=2.4 q=63.0 size=       1KiB time=00:00:02.98 bitrate=   1.5kbits/s speed=0.0196x elapsed=0:02:31.87    \nframe=  362 fps=2.4 q=63.0 size=       1KiB time=00:00:03.00 bitrate=   1.5kbits/s speed=0.0197x elapsed=0:02:32.44    \nframe=  364 fps=2.4 q=62.0 size=       1KiB time=00:00:03.02 bitrate=   1.5kbits/s speed=0.0198x elapsed=0:02:33.01    \nframe=  367 fps=2.4 q=62.0 size=       1KiB time=00:00:03.04 bitrate=   1.5kbits/s speed=0.0198x elapsed=0:02:33.58    \nframe=  369 fps=2.4 q=52.0 size=       1KiB time=00:00:03.06 bitrate=   1.5kbits/s speed=0.0199x elapsed=0:02:34.14    \nframe=  372 fps=2.4 q=63.0 size=       1KiB time=00:00:03.08 bitrate=   1.5kbits/s speed=0.0199x elapsed=0:02:34.71    \nframe=  374 fps=2.4 q=63.0 size=       1KiB time=00:00:03.10 bitrate=   1.4kbits/s speed=0.02x elapsed=0:02:35.30    \nframe=  375 fps=2.4 q=63.0 size=       1KiB time=00:00:03.11 bitrate=   1.4kbits/s speed=0.02x elapsed=0:02:35.87    \nframe=  378 fps=2.4 q=63.0 size=       1KiB time=00:00:03.14 bitrate=   1.4kbits/s speed=0.0201x elapsed=0:02:36.50    \nframe=  380 fps=2.4 q=62.0 size=       1KiB time=00:00:03.15 bitrate=   1.4kbits/s speed=0.0201x elapsed=0:02:37.06    \nframe=  384 fps=2.4 q=63.0 size=       1KiB time=00:00:03.19 bitrate=   1.4kbits/s speed=0.0202x elapsed=0:02:37.64    \nframe=  386 fps=2.4 q=63.0 size=       1KiB time=00:00:03.20 bitrate=   1.4kbits/s speed=0.0203x elapsed=0:02:38.20    \nframe=  387 fps=2.4 q=63.0 size=       1KiB time=00:00:03.21 bitrate=   1.4kbits/s speed=0.0203x elapsed=0:02:38.78    \nframe=  389 fps=2.4 q=62.0 size=       1KiB time=00:00:03.23 bitrate=   1.4kbits/s speed=0.0203x elapsed=0:02:39.38    \nframe=  390 fps=2.4 q=61.0 size=       1KiB time=00:00:03.24 bitrate=   1.4kbits/s speed=0.0203x elapsed=0:02:39.95    \nframe=  392 fps=2.4 q=61.0 size=       1KiB time=00:00:03.25 bitrate=   1.4kbits/s speed=0.0203x elapsed=0:02:40.50    \nframe=  395 fps=2.5 q=61.0 size=       1KiB time=00:00:03.28 bitrate=   1.4kbits/s speed=0.0204x elapsed=0:02:41.06    \nframe=  398 fps=2.5 q=63.0 size=       1KiB time=00:00:03.30 bitrate=   1.4kbits/s speed=0.0204x elapsed=0:02:41.64    \nframe=  401 fps=2.5 q=53.0 size=       1KiB time=00:00:03.33 bitrate=   1.3kbits/s speed=0.0205x elapsed=0:02:42.20    \nframe=  403 fps=2.5 q=63.0 size=       1KiB time=00:00:03.35 bitrate=   1.3kbits/s speed=0.0206x elapsed=0:02:42.78    \nframe=  404 fps=2.5 q=63.0 size=       1KiB time=00:00:03.35 bitrate=   1.3kbits/s speed=0.0206x elapsed=0:02:43.34    \nframe=  406 fps=2.5 q=63.0 size=       1KiB time=00:00:03.37 bitrate=   1.3kbits/s speed=0.0206x elapsed=0:02:43.92    \nframe=  407 fps=2.5 q=63.0 size=       1KiB time=00:00:03.38 bitrate=   1.3kbits/s speed=0.0206x elapsed=0:02:44.51    \nframe=  410 fps=2.5 q=63.0 size=       1KiB time=00:00:03.40 bitrate=   1.3kbits/s speed=0.0206x elapsed=0:02:45.08    \nframe=  411 fps=2.5 q=61.0 size=       1KiB time=00:00:03.41 bitrate=   1.3kbits/s speed=0.0206x elapsed=0:02:45.69    \nframe=  413 fps=2.5 q=58.0 size=       1KiB time=00:00:03.42 bitrate=   1.3kbits/s speed=0.0206x elapsed=0:02:46.30    \nframe=  415 fps=2.5 q=61.0 size=       1KiB time=00:00:03.45 bitrate=   1.3kbits/s speed=0.0207x elapsed=0:02:46.90    \nframe=  417 fps=2.5 q=51.0 size=       1KiB time=00:00:03.46 bitrate=   1.3kbits/s speed=0.0207x elapsed=0:02:47.48    \nframe=  419 fps=2.5 q=63.0 size=       1KiB time=00:00:03.48 bitrate=   1.3kbits/s speed=0.0207x elapsed=0:02:48.09    \nframe=  421 fps=2.5 q=61.0 size=       1KiB time=00:00:03.50 bitrate=   1.3kbits/s speed=0.0207x elapsed=0:02:48.68    \nframe=  423 fps=2.5 q=63.0 size=       1KiB time=00:00:03.51 bitrate=   1.3kbits/s speed=0.0208x elapsed=0:02:49.27    \nframe=  425 fps=2.5 q=58.0 size=       1KiB time=00:00:03.53 bitrate=   1.3kbits/s speed=0.0208x elapsed=0:02:49.88    \nframe=  427 fps=2.5 q=61.0 size=       1KiB time=00:00:03.55 bitrate=   1.3kbits/s speed=0.0208x elapsed=0:02:50.48    \nframe=  431 fps=2.5 q=61.0 size=       1KiB time=00:00:03.58 bitrate=   1.3kbits/s speed=0.0209x elapsed=0:02:51.10    \nframe=  433 fps=2.5 q=52.0 size=       1KiB time=00:00:03.60 bitrate=   1.2kbits/s speed=0.021x elapsed=0:02:51.71    \nframe=  434 fps=2.5 q=63.0 size=       1KiB time=00:00:03.60 bitrate=   1.2kbits/s speed=0.0209x elapsed=0:02:52.29    \nframe=  436 fps=2.5 q=63.0 size=       1KiB time=00:00:03.62 bitrate=   1.2kbits/s speed=0.021x elapsed=0:02:52.87    \nframe=  437 fps=2.5 q=61.0 size=       1KiB time=00:00:03.63 bitrate=   1.2kbits/s speed=0.0209x elapsed=0:02:53.44    \nframe=  439 fps=2.5 q=63.0 size=       1KiB time=00:00:03.65 bitrate=   1.2kbits/s speed=0.021x elapsed=0:02:54.01    \nframe=  442 fps=2.5 q=63.0 size=       1KiB time=00:00:03.67 bitrate=   1.2kbits/s speed=0.0211x elapsed=0:02:54.56    \nframe=  444 fps=2.5 q=61.0 size=       1KiB time=00:00:03.69 bitrate=   1.2kbits/s speed=0.0211x elapsed=0:02:55.12    \nframe=  448 fps=2.5 q=63.0 size=       1KiB time=00:00:03.72 bitrate=   1.2kbits/s speed=0.0212x elapsed=0:02:55.69    \nframe=  451 fps=2.6 q=63.0 size=       1KiB time=00:00:03.75 bitrate=   1.2kbits/s speed=0.0213x elapsed=0:02:56.24    \nframe=  453 fps=2.6 q=61.0 size=       1KiB time=00:00:03.76 bitrate=   1.2kbits/s speed=0.0213x elapsed=0:02:56.80    \nframe=  455 fps=2.6 q=58.0 size=       1KiB time=00:00:03.77 bitrate=   1.2kbits/s speed=0.0213x elapsed=0:02:57.36    \nframe=  457 fps=2.6 q=58.0 size=       1KiB time=00:00:03.80 bitrate=   1.2kbits/s speed=0.0214x elapsed=0:02:57.94    \nframe=  459 fps=2.6 q=61.0 size=       1KiB time=00:00:03.81 bitrate=   1.2kbits/s speed=0.0214x elapsed=0:02:58.52    \nframe=  463 fps=2.6 q=61.0 size=       1KiB time=00:00:03.84 bitrate=   1.2kbits/s speed=0.0214x elapsed=0:02:59.11    \nframe=  465 fps=2.6 q=52.0 size=       1KiB time=00:00:03.86 bitrate=   1.2kbits/s speed=0.0215x elapsed=0:02:59.69    \nframe=  467 fps=2.6 q=63.0 size=       1KiB time=00:00:03.88 bitrate=   1.2kbits/s speed=0.0215x elapsed=0:03:00.26    \nframe=  469 fps=2.6 q=61.0 size=       1KiB time=00:00:03.90 bitrate=   1.1kbits/s speed=0.0216x elapsed=0:03:00.81    \nframe=  470 fps=2.6 q=61.0 size=       1KiB time=00:00:03.90 bitrate=   1.1kbits/s speed=0.0215x elapsed=0:03:01.38    \nframe=  474 fps=2.6 q=63.0 size=       1KiB time=00:00:03.93 bitrate=   1.1kbits/s speed=0.0216x elapsed=0:03:01.96    \nframe=  475 fps=2.6 q=61.0 size=       1KiB time=00:00:03.95 bitrate=   1.1kbits/s speed=0.0216x elapsed=0:03:02.54    \nframe=  478 fps=2.6 q=63.0 size=       1KiB time=00:00:03.97 bitrate=   1.1kbits/s speed=0.0217x elapsed=0:03:03.14    \nframe=  482 fps=2.6 q=63.0 size=       1KiB time=00:00:04.00 bitrate=   1.1kbits/s speed=0.0218x elapsed=0:03:03.74    \nframe=  484 fps=2.6 q=63.0 size=       1KiB time=00:00:04.02 bitrate=   1.1kbits/s speed=0.0218x elapsed=0:03:04.30    \nframe=  486 fps=2.6 q=63.0 size=       1KiB time=00:00:04.04 bitrate=   1.1kbits/s speed=0.0219x elapsed=0:03:04.86    \nframe=  489 fps=2.6 q=58.0 size=       1KiB time=00:00:04.06 bitrate=   1.1kbits/s speed=0.0219x elapsed=0:03:05.43    \nframe=  490 fps=2.6 q=63.0 size=       1KiB time=00:00:04.07 bitrate=   1.1kbits/s speed=0.0219x elapsed=0:03:05.99    \nframe=  492 fps=2.6 q=61.0 size=       1KiB time=00:00:04.08 bitrate=   1.1kbits/s speed=0.0219x elapsed=0:03:06.56    \nframe=  497 fps=2.7 q=52.0 size=       1KiB time=00:00:04.12 bitrate=   1.1kbits/s speed=0.022x elapsed=0:03:07.15    \nframe=  498 fps=2.7 q=63.0 size=       1KiB time=00:00:04.14 bitrate=   1.1kbits/s speed=0.0221x elapsed=0:03:07.74    \nframe=  500 fps=2.7 q=63.0 size=       1KiB time=00:00:04.15 bitrate=   1.1kbits/s speed=0.0221x elapsed=0:03:08.33    \nframe=  505 fps=2.7 q=58.0 size=       1KiB time=00:00:04.20 bitrate=   1.1kbits/s speed=0.0222x elapsed=0:03:08.91    \nframe=  505 fps=2.7 q=58.0 size=       1KiB time=00:00:04.20 bitrate=   1.1kbits/s speed=0.0222x elapsed=0:03:09.50    \nframe=  509 fps=2.7 q=58.0 size=       1KiB time=00:00:04.23 bitrate=   1.1kbits/s speed=0.0223x elapsed=0:03:10.07    \nframe=  509 fps=2.7 q=58.0 size=       1KiB time=00:00:04.23 bitrate=   1.1kbits/s speed=0.0222x elapsed=0:03:10.66    \nframe=  513 fps=2.7 q=52.0 size=       1KiB time=00:00:04.26 bitrate=   1.0kbits/s speed=0.0223x elapsed=0:03:11.24    \nframe=  515 fps=2.7 q=63.0 size=       1KiB time=00:00:04.28 bitrate=   1.0kbits/s speed=0.0223x elapsed=0:03:11.82    \nframe=  517 fps=2.7 q=61.0 size=       1KiB time=00:00:04.30 bitrate=   1.0kbits/s speed=0.0223x elapsed=0:03:12.40    \nframe=  521 fps=2.7 q=58.0 size=       1KiB time=00:00:04.33 bitrate=   1.0kbits/s speed=0.0225x elapsed=0:03:12.95    \nframe=  521 fps=2.7 q=58.0 size=       1KiB time=00:00:04.33 bitrate=   1.0kbits/s speed=0.0224x elapsed=0:03:13.52    \nframe=  523 fps=2.7 q=61.0 size=       1KiB time=00:00:04.35 bitrate=   1.0kbits/s speed=0.0224x elapsed=0:03:14.09    \nframe=  527 fps=2.7 q=61.0 size=       1KiB time=00:00:04.38 bitrate=   1.0kbits/s speed=0.0225x elapsed=0:03:14.67    \nframe=  529 fps=2.7 q=52.0 size=       1KiB time=00:00:04.40 bitrate=   1.0kbits/s speed=0.0225x elapsed=0:03:15.24    \nframe=  533 fps=2.7 q=61.0 size=       1KiB time=00:00:04.43 bitrate=   1.0kbits/s speed=0.0226x elapsed=0:03:15.80    \nframe=  537 fps=2.7 q=58.0 size=       1KiB time=00:00:04.46 bitrate=   1.0kbits/s speed=0.0227x elapsed=0:03:16.37    \nframe=  537 fps=2.7 q=58.0 size=       1KiB time=00:00:04.46 bitrate=   1.0kbits/s speed=0.0227x elapsed=0:03:16.92    \nframe=  539 fps=2.7 q=61.0 size=       1KiB time=00:00:04.48 bitrate=   1.0kbits/s speed=0.0227x elapsed=0:03:17.47    \nframe=  541 fps=2.7 q=58.0 size=       1KiB time=00:00:04.50 bitrate=   1.0kbits/s speed=0.0227x elapsed=0:03:18.02    \nframe=  545 fps=2.7 q=52.0 size=       1KiB time=00:00:04.53 bitrate=   1.0kbits/s speed=0.0228x elapsed=0:03:18.58    \nframe=  549 fps=2.8 q=61.0 size=       1KiB time=00:00:04.56 bitrate=   1.0kbits/s speed=0.0229x elapsed=0:03:19.14    \nframe=  551 fps=2.8 q=57.0 size=       1KiB time=00:00:04.58 bitrate=   1.0kbits/s speed=0.0229x elapsed=0:03:19.71    \nframe=  553 fps=2.8 q=58.0 size=       1KiB time=00:00:04.60 bitrate=   1.0kbits/s speed=0.023x elapsed=0:03:20.28    \nframe=  557 fps=2.8 q=58.0 size=       1KiB time=00:00:04.63 bitrate=   1.0kbits/s speed=0.0231x elapsed=0:03:20.85    \nframe=  557 fps=2.8 q=58.0 size=       1KiB time=00:00:04.63 bitrate=   1.0kbits/s speed=0.023x elapsed=0:03:21.42    \nframe=  563 fps=2.8 q=63.0 size=       1KiB time=00:00:04.68 bitrate=   1.0kbits/s speed=0.0232x elapsed=0:03:21.98    \nframe=  565 fps=2.8 q=61.0 size=       1KiB time=00:00:04.70 bitrate=   1.0kbits/s speed=0.0232x elapsed=0:03:22.56    \nframe=  569 fps=2.8 q=57.0 size=       1KiB time=00:00:04.73 bitrate=   0.9kbits/s speed=0.0233x elapsed=0:03:23.12    \nframe=  569 fps=2.8 q=57.0 size=       1KiB time=00:00:04.73 bitrate=   0.9kbits/s speed=0.0232x elapsed=0:03:23.71    \nframe=  571 fps=2.8 q=61.0 size=       1KiB time=00:00:04.75 bitrate=   0.9kbits/s speed=0.0233x elapsed=0:03:24.28    \nframe=  573 fps=2.8 q=58.0 size=       1KiB time=00:00:04.76 bitrate=   0.9kbits/s speed=0.0233x elapsed=0:03:24.86    \nframe=  575 fps=2.8 q=63.0 size=       1KiB time=00:00:04.78 bitrate=   0.9kbits/s speed=0.0233x elapsed=0:03:25.47    \nframe=  579 fps=2.8 q=63.0 size=       1KiB time=00:00:04.81 bitrate=   0.9kbits/s speed=0.0234x elapsed=0:03:26.06    \nframe=  581 fps=2.8 q=63.0 size=       1KiB time=00:00:04.83 bitrate=   0.9kbits/s speed=0.0234x elapsed=0:03:26.65    \nframe=  585 fps=2.8 q=61.0 size=       1KiB time=00:00:04.86 bitrate=   0.9kbits/s speed=0.0235x elapsed=0:03:27.22    \nframe=  587 fps=2.8 q=63.0 size=       1KiB time=00:00:04.88 bitrate=   0.9kbits/s speed=0.0235x elapsed=0:03:27.79    \nframe=  589 fps=2.8 q=63.0 size=       1KiB time=00:00:04.90 bitrate=   0.9kbits/s speed=0.0235x elapsed=0:03:28.35    \n[out#0/matroska @ 000001c108cc9100] video:517KiB audio:0KiB subtitle:0KiB other streams:0KiB global headers:0KiB muxing overhead: 0.623756%\nframe=  600 fps=2.9 q=63.0 Lsize=     521KiB time=00:00:04.99 bitrate= 854.2kbits/s speed=0.0239x elapsed=0:03:28.89    \n",
  "seconds": 210.42475271224976,
  "probe_out": {}
}